<svg width="134" height="42" viewBox="0 0 134 42" fill="none" xmlns="http://www.w3.org/2000/svg">
<path d="M5.125 41.5H128.875C131.405 41.5 133.5 39.4905 133.5 37V5C133.5 2.50947 131.405 0.5 128.875 0.5H5.125C2.59472 0.5 0.5 2.50947 0.5 5V37C0.5 39.4905 2.59472 41.5 5.125 41.5Z" fill="black" stroke="#A6A6A6"/>
<path d="M27.766 20.7312C27.766 17.6419 30.5746 16.1471 30.6826 16.0474C29.0623 13.9546 26.6858 13.6557 25.8217 13.556C23.7693 13.3567 21.7169 14.6522 20.7447 14.6522C19.6645 14.6522 18.0442 13.556 16.3159 13.556C14.0474 13.556 11.995 14.7519 10.8068 16.6453C8.43036 20.4323 10.1587 26.013 12.4271 29.1023C13.6153 30.5972 14.9116 32.2913 16.6399 32.1917C18.3682 32.092 19.0164 31.1951 21.0688 31.1951C23.1212 31.1951 23.6613 32.1917 25.4976 32.1917C27.3339 32.1917 28.5222 30.6968 29.6024 29.202C30.8986 27.5078 31.4387 25.8137 31.4387 25.714C31.3307 25.6144 27.766 24.4185 27.766 20.7312Z" fill="white"/>
<path d="M24.4167 11.5644C25.2809 10.4681 25.929 9.07296 25.821 7.57812C24.5248 7.67778 22.7964 8.37537 21.9323 9.47159C21.0681 10.3685 20.312 11.8633 20.528 13.2585C21.9323 13.3582 23.4446 12.5609 24.4167 11.5644Z" fill="white"/>
<path d="M52.394 31.9923H50.0176L48.7213 28.2054H44.1844L42.9962 31.9923H40.7278L45.2647 19.1367H48.0732L52.394 31.9923ZM48.2892 26.6109L47.101 23.2226C46.993 22.9236 46.7769 22.0267 46.3449 20.8309C46.2368 21.3291 46.0208 22.2261 45.6967 23.2226L44.5085 26.6109H48.2892Z" fill="white"/>
<path d="M63.9528 27.3088C63.9528 28.9033 63.5207 30.0992 62.5485 31.0958C61.6844 31.893 60.7122 32.2916 59.4159 32.2916C58.1197 32.2916 57.1475 31.893 56.6074 30.9961V35.8792H54.339V25.9136C54.339 24.9171 54.339 23.9205 54.231 22.8243H56.1753L56.2833 24.3192C57.0395 23.2229 58.1197 22.625 59.632 22.625C60.8202 22.625 61.7924 23.0236 62.5485 23.9205C63.5207 24.7178 63.9528 25.814 63.9528 27.3088ZM61.6844 27.3088C61.6844 26.4119 61.4683 25.6147 61.0363 25.1164C60.6042 24.5185 59.956 24.2195 59.0919 24.2195C58.5518 24.2195 58.0117 24.4188 57.5796 24.7178C57.1475 25.0167 56.8235 25.515 56.7154 26.0133C56.6074 26.3123 56.6074 26.5116 56.6074 26.6112V28.2057C56.6074 28.9033 56.8235 29.4016 57.2555 29.8999C57.6876 30.3982 58.3357 30.5975 58.9839 30.5975C59.848 30.5975 60.4962 30.2985 60.9282 29.7006C61.4683 29.1026 61.6844 28.3054 61.6844 27.3088Z" fill="white"/>
<path d="M75.5104 27.3088C75.5104 28.9033 75.0783 30.0992 74.1062 31.0958C73.242 31.893 72.2698 32.2916 70.9736 32.2916C69.6773 32.2916 68.7051 31.893 68.165 30.9961V35.8792H65.8966V25.9136C65.8966 24.9171 65.8966 23.9205 65.7886 22.8243H67.7329L67.841 24.3192C68.5971 23.2229 69.6773 22.625 71.1896 22.625C72.3778 22.625 73.35 23.0236 74.1062 23.9205C75.0783 24.7178 75.5104 25.814 75.5104 27.3088ZM73.242 27.3088C73.242 26.4119 73.0259 25.6147 72.5939 25.1164C72.1618 24.5185 71.5137 24.2195 70.6495 24.2195C70.1094 24.2195 69.5693 24.4188 69.1372 24.7178C68.7051 25.0167 68.3811 25.515 68.273 26.0133C68.165 26.3123 68.165 26.5116 68.165 26.6112V28.2057C68.165 28.9033 68.3811 29.4016 68.8131 29.8999C69.2452 30.3982 69.8934 30.5975 70.5415 30.5975C71.4056 30.5975 72.0538 30.2985 72.4858 29.7006C73.0259 29.1026 73.242 28.3054 73.242 27.3088Z" fill="white"/>
<path d="M88.4726 28.4028C88.4726 29.499 88.0405 30.3959 87.2844 31.0935C86.4202 31.8908 85.124 32.1897 83.5036 32.1897C81.9914 32.1897 80.8031 31.8908 79.939 31.3925L80.4791 29.6983C81.4513 30.1966 82.5315 30.4956 83.7197 30.4956C84.5838 30.4956 85.232 30.2963 85.6641 29.9973C86.0961 29.5987 86.3122 29.2001 86.3122 28.6021C86.3122 28.1038 86.0961 27.6056 85.7721 27.3066C85.34 26.908 84.6919 26.609 83.8277 26.31C81.3432 25.5128 80.155 24.2173 80.155 22.6228C80.155 21.5266 80.5871 20.7293 81.4513 20.0317C82.3154 19.3341 83.3956 19.0352 84.9079 19.0352C86.2042 19.0352 87.1763 19.2345 88.0405 19.6331L87.5004 21.3272C86.7443 20.9286 85.8801 20.7293 84.7999 20.7293C84.0437 20.7293 83.3956 20.9286 82.9635 21.2276C82.6395 21.5266 82.4234 21.9252 82.4234 22.4235C82.4234 22.9217 82.6395 23.3204 83.0716 23.719C83.3956 24.018 84.1518 24.3169 85.124 24.7155C86.3122 25.1142 87.1763 25.7121 87.8245 26.31C88.1485 26.8083 88.4726 27.5059 88.4726 28.4028Z" fill="white"/>
<path d="M95.8185 24.3202H93.3341V28.8047C93.3341 29.9009 93.7662 30.4988 94.6303 30.4988C95.0624 30.4988 95.3865 30.4988 95.6025 30.3992L95.7105 31.9937C95.2785 32.193 94.7383 32.193 93.9822 32.193C93.118 32.193 92.3619 31.9937 91.9298 31.4954C91.3897 30.9971 91.1737 30.1999 91.1737 29.004V24.3202H89.6614V22.7257H91.1737V21.0315L93.3341 20.4336V22.7257H95.8185V24.3202Z" fill="white"/>
<path d="M106.945 27.3108C106.945 28.706 106.513 29.9019 105.648 30.7988C104.676 31.6957 103.488 32.194 101.976 32.194C100.463 32.194 99.2752 31.6957 98.411 30.7988C97.5468 29.9019 97.1147 28.8057 97.1147 27.4105C97.1147 26.0153 97.5468 24.8194 98.519 23.9225C99.3832 23.0256 100.679 22.5273 102.192 22.5273C103.704 22.5273 104.892 23.0256 105.756 23.9225C106.513 24.8194 106.945 25.9156 106.945 27.3108ZM104.568 27.4105C104.568 26.5136 104.352 25.816 103.92 25.2181C103.488 24.5205 102.732 24.1218 101.868 24.1218C101.003 24.1218 100.247 24.5205 99.8153 25.2181C99.3832 25.816 99.1671 26.6132 99.1671 27.4105C99.1671 28.3074 99.3832 29.005 99.8153 29.6029C100.247 30.3005 101.003 30.6991 101.868 30.6991C102.732 30.6991 103.38 30.3005 103.92 29.6029C104.352 29.005 104.568 28.2077 104.568 27.4105Z" fill="white"/>
<path d="M114.182 24.5186C113.966 24.5186 113.75 24.4189 113.426 24.4189C112.669 24.4189 112.021 24.7179 111.589 25.2161C111.265 25.7144 111.049 26.3124 111.049 27.01V31.8931H108.781V25.5151C108.781 24.4189 108.781 23.522 108.673 22.6251H110.617L110.725 24.4189H110.833C111.049 23.821 111.481 23.3227 111.913 22.9241C112.453 22.6251 112.993 22.4258 113.534 22.4258C113.75 22.4258 113.966 22.4258 114.074 22.4258V24.5186H114.182Z" fill="white"/>
<path d="M124.119 26.9122C124.119 27.3108 124.12 27.6098 124.011 27.8091H117.314C117.314 28.706 117.638 29.4036 118.286 29.9019C118.827 30.3005 119.583 30.5995 120.447 30.5995C121.419 30.5995 122.391 30.4998 123.147 30.2008L123.471 31.596C122.499 31.9947 121.419 32.194 120.123 32.194C118.61 32.194 117.314 31.7953 116.45 30.8984C115.586 30.1012 115.154 28.9053 115.154 27.5101C115.154 26.115 115.586 24.9191 116.342 24.0222C117.206 23.0256 118.394 22.5273 119.907 22.5273C121.311 22.5273 122.499 23.0256 123.147 24.0222C123.903 24.8194 124.119 25.816 124.119 26.9122ZM122.067 26.4139C122.067 25.816 121.959 25.3177 121.635 24.8194C121.203 24.2215 120.663 23.9225 119.907 23.9225C119.151 23.9225 118.61 24.2215 118.178 24.7198C117.854 25.1184 117.638 25.7163 117.53 26.3143H122.067V26.4139Z" fill="white"/>
<path d="M47.641 11.267C47.641 12.3632 47.3169 13.2601 46.5608 13.8581C45.9127 14.3564 44.9405 14.6553 43.6442 14.6553C42.9961 14.6553 42.456 14.6553 42.0239 14.5557V8.377C42.564 8.27734 43.2121 8.27734 43.9683 8.27734C45.1565 8.27734 46.0207 8.47666 46.6688 8.97494C47.2089 9.47321 47.641 10.2705 47.641 11.267ZM46.4528 11.267C46.4528 10.5694 46.2367 9.97149 45.8046 9.57287C45.3726 9.17425 44.7244 8.97494 43.9683 8.97494C43.6442 8.97494 43.3202 8.97494 43.1041 9.07459V13.7584C43.2122 13.7584 43.5362 13.7584 43.8603 13.7584C44.7244 13.7584 45.3726 13.5591 45.8046 13.1605C46.2367 12.7619 46.4528 12.0643 46.4528 11.267Z" fill="white"/>
<path d="M53.6905 12.2628C53.6905 12.9604 53.4745 13.5584 53.0424 13.957C52.6103 14.4553 51.9622 14.6546 51.206 14.6546C50.4499 14.6546 49.9098 14.4553 49.4777 13.957C49.0456 13.5584 48.8296 12.9604 48.8296 12.2628C48.8296 11.5652 49.0456 10.9673 49.4777 10.5687C49.9098 10.0704 50.5579 9.87109 51.3141 9.87109C52.0702 9.87109 52.6103 10.0704 53.0424 10.5687C53.4745 10.9673 53.6905 11.5652 53.6905 12.2628ZM52.6103 12.2628C52.6103 11.8642 52.5023 11.4656 52.2863 11.1666C52.0702 10.768 51.7461 10.6683 51.3141 10.6683C50.882 10.6683 50.5579 10.8677 50.3419 11.1666C50.1258 11.4656 50.0178 11.8642 50.0178 12.2628C50.0178 12.6615 50.1258 13.0601 50.3419 13.359C50.5579 13.7577 50.882 13.8573 51.3141 13.8573C51.7461 13.8573 52.0702 13.658 52.2863 13.2594C52.5023 13.0601 52.6103 12.6615 52.6103 12.2628Z" fill="white"/>
<path d="M62.0081 9.96875L60.4958 14.5529H59.5237L58.8755 12.5598C58.6595 12.0615 58.5515 11.5632 58.4435 11.065C58.3354 11.5632 58.2274 12.0615 58.0114 12.5598L57.3632 14.5529H56.3911L54.7708 9.96875H55.851L56.3911 12.1612C56.4991 12.6595 56.6071 13.1577 56.7151 13.656C56.8231 13.2574 56.9312 12.7591 57.1472 12.1612L57.7953 9.96875H58.6595L59.3076 12.0615C59.5237 12.5598 59.6317 13.0581 59.7397 13.5564C59.8477 13.0581 59.9557 12.5598 60.0638 12.0615L60.7119 9.96875H62.0081Z" fill="white"/>
<path d="M67.6249 14.553H66.5447V11.962C66.5447 11.1647 66.2206 10.7661 65.5725 10.7661C65.2485 10.7661 65.0324 10.8657 64.8164 11.0651C64.6003 11.2644 64.4923 11.5633 64.4923 11.8623V14.553H63.4121V11.2644C63.4121 10.8657 63.4121 10.4671 63.4121 9.96884H64.3843V10.6664C64.4923 10.4671 64.7084 10.2678 64.9244 10.0685C65.2485 9.86919 65.5725 9.76953 65.8966 9.76953C66.3287 9.76953 66.7607 9.86919 67.0848 10.1682C67.5169 10.4671 67.6249 10.9654 67.6249 11.663V14.553Z" fill="white"/>
<path d="M70.6495 14.5519H69.5693V7.875H70.6495V14.5519Z" fill="white"/>
<path d="M77.13 12.2628C77.13 12.9604 76.9139 13.5584 76.4818 13.957C76.0498 14.4553 75.4016 14.6546 74.6455 14.6546C73.8893 14.6546 73.3492 14.4553 72.9172 13.957C72.4851 13.5584 72.269 12.9604 72.269 12.2628C72.269 11.5652 72.4851 10.9673 72.9172 10.5687C73.3492 10.1701 73.9974 9.87109 74.7535 9.87109C75.5097 9.87109 76.0498 10.0704 76.4818 10.5687C76.9139 10.9673 77.13 11.5652 77.13 12.2628ZM76.0498 12.2628C76.0498 11.8642 75.9417 11.4656 75.7257 11.1666C75.5097 10.768 75.1856 10.6683 74.7535 10.6683C74.3214 10.6683 73.9974 10.8677 73.7813 11.1666C73.5653 11.4656 73.4573 11.8642 73.4573 12.2628C73.4573 12.6615 73.5653 13.0601 73.7813 13.359C73.9974 13.7577 74.3214 13.8573 74.7535 13.8573C75.1856 13.8573 75.5097 13.658 75.7257 13.2594C75.9417 13.0601 76.0498 12.6615 76.0498 12.2628Z" fill="white"/>
<path d="M82.4238 14.5549H81.4516L81.3436 14.0566C81.0195 14.4553 80.4794 14.6546 79.9393 14.6546C79.5072 14.6546 79.0751 14.5549 78.8591 14.256C78.643 13.957 78.427 13.658 78.427 13.359C78.427 12.7611 78.643 12.3625 79.1832 12.0635C79.7233 11.7646 80.3714 11.6649 81.3436 11.6649V11.5652C81.3436 10.9673 81.0195 10.6683 80.3714 10.6683C79.8313 10.6683 79.5072 10.768 79.0751 10.9673L78.8591 10.2697C79.2912 9.97075 79.8313 9.87109 80.5874 9.87109C81.8837 9.87109 82.5318 10.469 82.5318 11.7646V13.4587C82.4238 13.957 82.4238 14.256 82.4238 14.5549ZM81.3436 12.9604V12.2628C80.1553 12.2628 79.5072 12.5618 79.5072 13.1597C79.5072 13.3591 79.6152 13.5584 79.7233 13.658C79.8313 13.7577 80.0473 13.8573 80.2634 13.8573C80.4794 13.8573 80.6954 13.7577 80.9115 13.658C81.1275 13.5584 81.2355 13.3591 81.3436 13.1597C81.3436 13.1597 81.3436 13.0601 81.3436 12.9604Z" fill="white"/>
<path d="M88.6893 14.5539H87.7171V13.8563C87.3931 14.4542 86.853 14.6535 86.0968 14.6535C85.4487 14.6535 85.0166 14.4542 84.5845 14.0556C84.1525 13.6569 84.0444 13.059 84.0444 12.3614C84.0444 11.6638 84.2605 11.0659 84.6926 10.5676C85.1246 10.169 85.6647 9.96968 86.2048 9.96968C86.853 9.96968 87.285 10.169 87.6091 10.5676V7.97656H88.6893V13.358C88.6893 13.7566 88.6893 14.1552 88.6893 14.5539ZM87.6091 12.6604V11.8631C87.6091 11.7635 87.6091 11.6638 87.6091 11.5642C87.5011 11.3649 87.3931 11.1656 87.177 10.9662C86.961 10.7669 86.7449 10.7669 86.4209 10.7669C85.9888 10.7669 85.6647 10.9662 85.4487 11.2652C85.2327 11.5642 85.1246 11.9628 85.1246 12.4611C85.1246 12.9594 85.2327 13.2583 85.4487 13.5573C85.6647 13.8563 85.9888 14.0556 86.4209 14.0556C86.7449 14.0556 87.069 13.9559 87.285 13.6569C87.5011 13.2583 87.6091 12.9594 87.6091 12.6604Z" fill="white"/>
<path d="M98.0868 12.2628C98.0868 12.9604 97.8707 13.5584 97.4386 13.957C97.0065 14.4553 96.3584 14.6546 95.6023 14.6546C94.8461 14.6546 94.306 14.4553 93.8739 13.957C93.4419 13.5584 93.2258 12.9604 93.2258 12.2628C93.2258 11.5652 93.4419 10.9673 93.8739 10.5687C94.306 10.0704 94.9542 9.87109 95.7103 9.87109C96.4664 9.87109 97.0065 10.0704 97.4386 10.5687C97.8707 10.9673 98.0868 11.5652 98.0868 12.2628ZM96.8985 12.2628C96.8985 11.8642 96.7905 11.4656 96.5745 11.1666C96.3584 10.768 96.0344 10.6683 95.6023 10.6683C95.1702 10.6683 94.8461 10.8677 94.6301 11.1666C94.4141 11.4656 94.306 11.8642 94.306 12.2628C94.306 12.6615 94.4141 13.0601 94.6301 13.359C94.8461 13.7577 95.1702 13.8573 95.6023 13.8573C96.0344 13.8573 96.3584 13.658 96.5745 13.2594C96.7905 13.0601 96.8985 12.6615 96.8985 12.2628Z" fill="white"/>
<path d="M104.028 14.553H102.948V11.962C102.948 11.1647 102.624 10.7661 101.976 10.7661C101.652 10.7661 101.436 10.8657 101.22 11.0651C101.004 11.2644 100.896 11.5633 100.896 11.8623V14.553H99.8157V11.2644C99.8157 10.8657 99.8157 10.4671 99.8157 9.96884H100.788V10.6664C100.896 10.4671 101.112 10.2678 101.328 10.0685C101.652 9.86919 101.976 9.76953 102.3 9.76953C102.732 9.76953 103.164 9.86919 103.488 10.1682C103.92 10.4671 104.028 10.9654 104.028 11.663V14.553Z" fill="white"/>
<path d="M111.373 10.7646H110.185V12.957C110.185 13.5549 110.401 13.7542 110.833 13.7542C111.049 13.7542 111.157 13.7542 111.373 13.7542V14.5515C111.157 14.6511 110.833 14.6511 110.509 14.6511C110.077 14.6511 109.753 14.5515 109.537 14.2525C109.321 14.0532 109.213 13.5549 109.213 13.0566V10.7646H108.457V9.96731H109.213V9.17006L110.293 8.87109V9.96731H111.481V10.7646H111.373Z" fill="white"/>
<path d="M117.206 14.5519H116.126V11.9609C116.126 11.1636 115.801 10.765 115.153 10.765C114.613 10.765 114.289 10.9643 114.073 11.4626C114.073 11.5623 114.073 11.6619 114.073 11.8612V14.5519H112.993V7.875H114.073V10.6654C114.397 10.1671 114.937 9.86812 115.585 9.86812C116.017 9.86812 116.45 9.96777 116.666 10.2667C116.99 10.5657 117.206 11.1636 117.206 11.7616V14.5519Z" fill="white"/>
<path d="M123.147 12.0615C123.147 12.2608 123.147 12.3605 123.147 12.5598H119.907C119.907 13.0581 120.123 13.3571 120.339 13.5564C120.663 13.7557 120.987 13.8553 121.419 13.8553C121.959 13.8553 122.391 13.7557 122.715 13.656L122.931 14.3536C122.499 14.5529 121.959 14.6526 121.311 14.6526C120.555 14.6526 119.907 14.4533 119.475 14.0546C119.043 13.656 118.827 13.0581 118.827 12.3605C118.827 11.6629 119.043 11.065 119.475 10.6663C119.907 10.1681 120.447 9.96875 121.203 9.96875C121.959 9.96875 122.499 10.1681 122.823 10.6663C123.039 10.9653 123.147 11.4636 123.147 12.0615ZM122.175 11.7626C122.175 11.4636 122.067 11.1646 121.959 10.9653C121.743 10.6663 121.527 10.5667 121.095 10.5667C120.771 10.5667 120.447 10.6663 120.231 10.9653C120.015 11.1646 119.907 11.4636 119.907 11.7626H122.175Z" fill="white"/>
</svg>
