<svg width="20" height="20" viewBox="0 0 63 37" fill="none" xmlns="http://www.w3.org/2000/svg">
<path d="M31.3594 36.8437C30.6094 36.8437 29.8819 36.7031 29.1769 36.4219C28.4719 36.1406 27.8869 35.7656 27.4219 35.2969L1.54687 9.42188C0.515623 8.39063 0 7.07812 0 5.48437C0 3.89062 0.515623 2.57812 1.54687 1.54687C2.57812 0.515623 3.89062 0 5.48437 0C7.07812 0 8.39063 0.515623 9.42188 1.54687L31.3594 23.4844L53.2969 1.54687C54.3281 0.515623 55.6406 0 57.2344 0C58.8281 0 60.1406 0.515623 61.1719 1.54687C62.2031 2.57812 62.7188 3.89062 62.7188 5.48437C62.7188 7.07812 62.2031 8.39063 61.1719 9.42188L35.2969 35.2969C34.7344 35.8594 34.125 36.2587 33.4687 36.495C32.8125 36.7312 32.1094 36.8475 31.3594 36.8437Z" fill="white"/>
</svg>
