<svg width="61" height="45" viewBox="0 0 61 45" fill="none" xmlns="http://www.w3.org/2000/svg">
<g opacity="0.24">
<g clip-path="url(#clip0_1960_41131)">
<path d="M8.83728 22.0684L2.3125 34.9987L8.23758 34.4229L11.1053 39.9075L17.6301 26.9772L8.83728 22.0684Z" fill="#E95454"/>
<path d="M9.58488 36.143C9.76797 35.7294 9.57647 35.2352 9.19349 35.021L8.81797 34.8107C8.44246 34.5857 8.29954 34.0856 8.50411 33.6808C8.71149 33.2691 9.19909 33.1119 9.59049 33.33L10.6516 33.9225C10.9795 34.1052 11.3905 33.9726 11.5596 33.6258L11.5858 33.5727C11.78 33.2455 11.6652 32.8132 11.3419 32.6334L8.16783 30.8618C7.78111 30.6457 7.59148 30.1534 7.77177 29.7388C7.97073 29.2976 8.47329 29.1237 8.87776 29.3497L11.8221 30.9935C12.15 31.1763 12.561 31.0436 12.7347 30.6987L12.7515 30.6535L12.7562 30.6437C12.944 30.2821 12.8122 29.8282 12.4657 29.6346L10.8142 28.713C10.4275 28.4968 10.2378 28.0046 10.4209 27.585C10.618 27.1488 11.1224 26.97 11.5269 27.196L13.3512 28.2149C13.6922 28.4055 14.0995 28.2463 14.276 27.8847C14.2788 27.8798 14.2788 27.8798 14.2807 27.8749C14.2835 27.87 14.2835 27.87 14.2853 27.8651C14.4712 27.5084 14.3685 27.0643 14.0266 26.8747L12.0584 25.7762C11.6764 25.563 11.4867 25.0707 11.667 24.6561C11.866 24.2149 12.3685 24.041 12.773 24.267L17.6285 26.9778L11.1038 39.9082L9.30558 36.4702C9.42141 36.3877 9.5223 36.2855 9.58488 36.143Z" fill="#ED6362"/>
<path d="M21.0428 22.0684L27.5676 34.9987L21.6425 34.4229L18.7748 39.9075L12.25 26.9772L21.0428 22.0684Z" fill="#ED6362"/>
<path d="M20.2936 36.144C20.1105 35.7304 20.302 35.2361 20.685 35.0219L21.0605 34.8117C21.436 34.5867 21.5789 34.0866 21.3744 33.6817C21.167 33.2701 20.6794 33.1129 20.288 33.331L19.2268 33.9235C18.899 34.1062 18.488 33.9736 18.3189 33.6267L18.2927 33.5737C18.0984 33.2465 18.2133 32.8142 18.5365 32.6344L21.7116 30.8618C22.0983 30.6457 22.2879 30.1534 22.1077 29.7388C21.9087 29.2976 21.4061 29.1237 21.0017 29.3497L18.0573 30.9935C17.7295 31.1762 17.3185 31.0436 17.1447 30.6987L17.1279 30.6535L17.1232 30.6437C16.9355 30.2821 17.0672 29.8282 17.4137 29.6346L19.0652 28.713C19.452 28.4968 19.6416 28.0046 19.4585 27.585C19.2614 27.1488 18.757 26.97 18.3525 27.1959L16.5263 28.2168C16.1854 28.4074 15.7781 28.2483 15.6016 27.8867C15.5988 27.8818 15.5988 27.8818 15.5969 27.8768C15.5941 27.8719 15.5941 27.8719 15.5922 27.867C15.4063 27.5104 15.5091 27.0662 15.851 26.8766L17.8191 25.7781C18.2012 25.5649 18.3908 25.0727 18.2105 24.658C18.0116 24.2169 17.509 24.0429 17.1045 24.2689L12.249 26.9798L18.7738 39.9101L20.572 36.4722C20.4571 36.3887 20.3562 36.2865 20.2936 36.144Z" fill="#E95454"/>
<path d="M14.9401 31.4171C20.9612 31.4171 25.8422 26.283 25.8422 19.9497C25.8422 13.6165 20.9612 8.48242 14.9401 8.48242C8.91909 8.48242 4.03809 13.6165 4.03809 19.9497C4.03809 26.283 8.91909 31.4171 14.9401 31.4171Z" fill="#FFCC5B"/>
<path d="M16.4164 18.6347H9.50765C8.97054 18.6347 8.52964 18.171 8.52964 17.606L8.53711 17.5353V17.5195C8.52964 16.9231 8.99202 16.4358 9.55997 16.4358H14.3482C14.9825 16.4358 15.543 15.9416 15.5803 15.2734C15.6102 14.5748 15.0806 13.9853 14.4155 13.9853H9.34325C8.78372 13.9853 8.36524 13.4911 8.37271 12.9016C8.37271 12.8937 8.37271 12.8937 8.37271 12.8858C8.37271 12.878 8.37271 12.878 8.37271 12.8701C8.36524 12.2816 8.78278 11.7864 9.34325 11.7864H14.6509C15.2777 11.7864 15.8381 11.2921 15.8755 10.6319C15.9054 9.92542 15.3758 9.34375 14.7107 9.34375H10.8238C6.86038 11.0622 4.06738 15.1614 4.06738 19.9504C4.06738 24.7393 6.86038 28.8375 10.8248 30.554H15.7597C16.3865 30.554 16.9469 30.0598 16.9843 29.3995C17.0142 28.6931 16.4845 28.1124 15.8195 28.1124L10.2054 28.1114C9.54315 28.1114 9.00977 27.5288 9.04527 26.8233C9.07796 26.163 9.64217 25.6668 10.2708 25.6668H12.4473C13.0732 25.6482 13.5785 25.1087 13.5785 24.4455C13.5785 23.7705 13.0563 23.2203 12.4137 23.2203H9.11439C8.57728 23.2203 8.13638 22.7575 8.14385 22.1916V22.1051C8.10649 21.548 8.53244 21.0764 9.06208 21.0764H16.3491C16.9834 21.0764 17.5438 20.5821 17.5812 19.9219C17.6111 19.2164 17.0805 18.6347 16.4164 18.6347Z" fill="#FDBC4B"/>
<path d="M14.9393 28.1339C10.648 28.1339 7.15723 24.4612 7.15723 19.9483C7.15723 15.4355 10.648 11.7637 14.9393 11.7637C19.2306 11.7637 22.7214 15.4364 22.7214 19.9493C22.7214 24.4621 19.2306 28.1339 14.9393 28.1339Z" fill="#FFDB70"/>
<path opacity="0.2" d="M22.7199 19.9491C22.7199 15.5945 19.4673 12.0327 15.3843 11.7871H14.6594C14.1811 11.7871 13.7542 12.1644 13.7253 12.6675C13.7029 13.2059 14.1064 13.65 14.6136 13.65L18.8956 13.651C19.401 13.651 19.8073 14.0951 19.7802 14.6336C19.755 15.1376 19.3253 15.5159 18.8452 15.5159H17.1852C16.7079 15.5306 16.3221 15.9413 16.3221 16.4473C16.3221 16.9622 16.721 17.3817 17.2105 17.3817H19.727C20.137 17.3817 20.4724 17.7355 20.4668 18.1658V18.2307C20.4948 18.6561 20.1707 19.0147 19.7662 19.0147H14.2092C13.7253 19.0147 13.2984 19.392 13.2694 19.8951C13.247 20.4335 13.6506 20.8777 14.1578 20.8777H19.4262C19.8363 20.8777 20.1716 21.2314 20.1716 21.6617L20.166 21.7158V21.7276C20.1716 22.1825 19.8185 22.5539 19.386 22.5539H15.7336C15.2498 22.5539 14.8229 22.9312 14.7939 23.4401C14.7715 23.9727 15.175 24.4227 15.6823 24.4227H19.5504C19.9773 24.4227 20.2958 24.8 20.2902 25.249C20.2902 25.2549 20.2902 25.2549 20.2902 25.2608C20.2902 25.2667 20.2902 25.2667 20.2902 25.2726C20.2958 25.7216 19.9773 26.0989 19.5504 26.0989H15.5029C15.0246 26.0989 14.5978 26.4762 14.5688 26.9793C14.5464 27.5187 14.9499 27.9618 15.4571 27.9618H16.5248C20.0586 27.1876 22.7199 23.8892 22.7199 19.9491Z" fill="white"/>
<path d="M19.1164 18.0389C18.7819 17.8255 18.3084 17.8833 18.0582 18.1685L16.3042 20.3122L13.8253 18.7219C13.4926 18.5085 13.0196 18.5653 12.7694 18.849C12.7688 18.85 12.7682 18.8505 12.767 18.8515L10.6097 21.4938C10.3577 21.7765 10.4226 22.1803 10.7541 22.3952C10.8809 22.4774 11.0353 22.5233 11.1943 22.5258V22.5407C11.4253 22.5353 11.641 22.4395 11.779 22.2815L13.533 20.1378L16.0119 21.7281C16.3446 21.9415 16.8176 21.8847 17.0678 21.601C17.0684 21.6 17.069 21.5995 17.0701 21.5985L19.2684 18.9412C19.5186 18.6561 19.4508 18.2523 19.1164 18.0389Z" fill="#D06400"/>
<path d="M4.07328 33.1234C3.99135 33.1234 3.91852 33.0684 3.89235 32.9868C3.52592 31.8448 3.25167 31.5563 2.16606 31.171C2.0884 31.1434 2.03613 31.0668 2.03613 30.9806C2.03613 30.8944 2.0884 30.8178 2.166 30.7903C3.25161 30.4049 3.52586 30.1164 3.89229 28.9745C3.91852 28.8929 3.99128 28.8379 4.07321 28.8379C4.15514 28.8379 4.22797 28.8929 4.25414 28.9745C4.62057 30.1164 4.89482 30.4049 5.98043 30.7903C6.05803 30.8179 6.11036 30.8944 6.11036 30.9806C6.11036 31.0668 6.05809 31.1434 5.98043 31.171C4.89482 31.5563 4.62057 31.8448 4.25414 32.9868C4.22804 33.0684 4.15521 33.1234 4.07328 33.1234Z" fill="#FFD00D"/>
<path d="M6.4323 15.5878C6.31015 15.5878 6.20155 15.5058 6.16244 15.3841C5.61602 13.6813 5.20706 13.2511 3.58819 12.6764C3.4725 12.6353 3.39453 12.521 3.39453 12.3925C3.39453 12.2641 3.4725 12.1498 3.58819 12.1087C5.20706 11.5341 5.61602 11.1038 6.16244 9.40096C6.20155 9.27928 6.31015 9.19727 6.4323 9.19727C6.55444 9.19727 6.66304 9.27928 6.70215 9.40096C7.24857 11.1038 7.65753 11.5339 9.27641 12.1087C9.39209 12.1498 9.47006 12.2641 9.47006 12.3925C9.47006 12.521 9.39209 12.6353 9.27641 12.6764C7.65753 13.2511 7.24857 13.6813 6.70215 15.3841C6.66304 15.5058 6.55444 15.5878 6.4323 15.5878Z" fill="white"/>
</g>
<path d="M24.2774 30.6279C24.1477 30.6279 24.0321 30.5408 23.9906 30.4115C23.4101 28.6022 22.9755 28.1451 21.2555 27.5346C21.1327 27.4908 21.0498 27.3695 21.0498 27.2329C21.0498 27.0964 21.1327 26.975 21.2555 26.9313C22.9756 26.3208 23.4101 25.8636 23.9906 24.0544C24.0321 23.925 24.1476 23.8379 24.2774 23.8379C24.4073 23.8379 24.5225 23.925 24.5642 24.0544C25.1447 25.8636 25.5794 26.3206 27.2994 26.9313C27.4221 26.975 27.5051 27.0964 27.5051 27.2329C27.5051 27.3695 27.4221 27.4908 27.2994 27.5346C25.5792 28.1453 25.1447 28.6022 24.5642 30.4115C24.5225 30.5408 24.4072 30.6279 24.2774 30.6279Z" fill="white"/>
</g>
<g opacity="0.24">
<g clip-path="url(#clip1_1960_41131)">
<path d="M39.9593 20.3887L33.4346 32.6816L39.3596 32.1342L42.2274 37.3484L48.7521 25.0555L39.9593 20.3887Z" fill="#E95454"/>
<path d="M40.707 33.7695C40.89 33.3763 40.6985 32.9064 40.3156 32.7028L39.94 32.5029C39.5645 32.2889 39.4216 31.8135 39.6262 31.4286C39.8336 31.0372 40.3212 30.8878 40.7126 31.0951L41.7737 31.6584C42.1016 31.8322 42.5126 31.7061 42.6817 31.3763L42.7078 31.3259C42.9021 31.0148 42.7872 30.6038 42.464 30.4329L39.2899 28.7487C38.9032 28.5432 38.7136 28.0752 38.8938 27.681C39.0928 27.2616 39.5954 27.0962 39.9998 27.3111L42.9442 28.8738C43.272 29.0476 43.683 28.9215 43.8568 28.5936L43.8736 28.5506L43.8783 28.5413C44.066 28.1975 43.9343 27.766 43.5878 27.582L41.9362 26.7058C41.5495 26.5002 41.3599 26.0323 41.543 25.6334C41.7401 25.2186 42.2445 25.0486 42.649 25.2635L44.4733 26.2322C44.8142 26.4134 45.2215 26.262 45.3981 25.9183C45.4009 25.9136 45.4009 25.9136 45.4027 25.909C45.4055 25.9043 45.4055 25.9043 45.4074 25.8996C45.5933 25.5605 45.4905 25.1383 45.1487 24.958L43.1805 23.9137C42.7984 23.711 42.6088 23.243 42.7891 22.8488C42.9881 22.4294 43.4906 22.264 43.8951 22.4789L48.7506 25.0561L42.2258 37.349L40.4277 34.0806C40.5435 34.0021 40.6444 33.905 40.707 33.7695Z" fill="#ED6362"/>
<path d="M52.1649 20.3887L58.6897 32.6816L52.7646 32.1342L49.8969 37.3484L43.3721 25.0555L52.1649 20.3887Z" fill="#ED6362"/>
<path d="M51.4157 33.7705C51.2326 33.3773 51.4241 32.9074 51.8071 32.7038L52.1826 32.5039C52.5581 32.29 52.701 31.8145 52.4964 31.4297C52.2891 31.0383 51.8015 30.8888 51.4101 31.0962L50.3489 31.6594C50.021 31.8332 49.61 31.7071 49.441 31.3773L49.4148 31.3269C49.2205 31.0158 49.3354 30.6048 49.6586 30.4339L52.8337 28.7487C53.2204 28.5432 53.41 28.0753 53.2297 27.6811C53.0308 27.2616 52.5282 27.0963 52.1237 27.3111L49.1794 28.8739C48.8515 29.0477 48.4405 28.9216 48.2668 28.5937L48.25 28.5507L48.2453 28.5414C48.0575 28.1976 48.1892 27.7661 48.5358 27.582L50.1873 26.7058C50.574 26.5003 50.7637 26.0323 50.5806 25.6335C50.3835 25.2187 49.8791 25.0487 49.4746 25.2636L47.6484 26.2341C47.3074 26.4153 46.9002 26.264 46.7236 25.9202C46.7208 25.9156 46.7208 25.9156 46.719 25.9109C46.7162 25.9062 46.7162 25.9062 46.7143 25.9016C46.5284 25.5625 46.6311 25.1403 46.973 24.96L48.9412 23.9156C49.3233 23.7129 49.5129 23.2449 49.3326 22.8508C49.1336 22.4313 48.6311 22.266 48.2266 22.4808L43.3711 25.0581L49.8959 37.351L51.694 34.0825C51.5791 34.0031 51.4783 33.906 51.4157 33.7705Z" fill="#E95454"/>
<path d="M46.0622 29.2767C52.0832 29.2767 56.9642 24.3957 56.9642 18.3747C56.9642 12.3537 52.0832 7.47266 46.0622 7.47266C40.0412 7.47266 35.1602 12.3537 35.1602 18.3747C35.1602 24.3957 40.0412 29.2767 46.0622 29.2767Z" fill="#FFCC5B"/>
<path d="M47.5384 17.1259H40.6297C40.0926 17.1259 39.6517 16.685 39.6517 16.1479L39.6592 16.0807V16.0657C39.6517 15.4987 40.1141 15.0354 40.682 15.0354H45.4703C46.1046 15.0354 46.665 14.5655 46.7024 13.9303C46.7323 13.2662 46.2026 12.7057 45.5376 12.7057H40.4653C39.9058 12.7057 39.4873 12.2359 39.4948 11.6754C39.4948 11.6679 39.4948 11.6679 39.4948 11.6604C39.4948 11.653 39.4948 11.653 39.4948 11.6455C39.4873 11.086 39.9049 10.6152 40.4653 10.6152H45.7729C46.3997 10.6152 46.9602 10.1453 46.9976 9.51759C47.0275 8.84596 46.4978 8.29297 45.8327 8.29297H41.9459C37.9824 9.92673 35.1895 13.8239 35.1895 18.3767C35.1895 22.9296 37.9825 26.8258 41.9468 28.4577H46.8817C47.5085 28.4577 48.069 27.9878 48.1064 27.3601C48.1363 26.6885 47.6066 26.1364 46.9415 26.1364L41.3275 26.1355C40.6652 26.1355 40.1318 25.5815 40.1673 24.9108C40.2 24.2831 40.7642 23.8114 41.3929 23.8114H43.5694C44.1952 23.7936 44.7006 23.2808 44.7006 22.6503C44.7006 22.0086 44.1784 21.4855 43.5357 21.4855H40.2365C39.6993 21.4855 39.2584 21.0455 39.2659 20.5074V20.4252C39.2286 19.8956 39.6545 19.4472 40.1842 19.4472H47.4712C48.1054 19.4472 48.6659 18.9774 48.7033 18.3496C48.7332 17.6789 48.2026 17.1259 47.5384 17.1259Z" fill="#FDBC4B"/>
<path d="M46.0614 26.157C41.7701 26.157 38.2793 22.6653 38.2793 18.3749C38.2793 14.0845 41.7701 10.5938 46.0614 10.5938C50.3527 10.5938 53.8435 14.0855 53.8435 18.3759C53.8435 22.6662 50.3527 26.157 46.0614 26.157Z" fill="#FFDB70"/>
<path opacity="0.2" d="M53.8419 18.3749C53.8419 14.2349 50.5893 10.8488 46.5063 10.6152H45.7815C45.3032 10.6152 44.8763 10.9739 44.8474 11.4522C44.8249 11.9641 45.2285 12.3863 45.7357 12.3863L50.0177 12.3872C50.523 12.3872 50.9294 12.8095 50.9023 13.3214C50.8771 13.8006 50.4474 14.1602 49.9672 14.1602H48.3073C47.83 14.1742 47.4442 14.5647 47.4442 15.0457C47.4442 15.5352 47.8431 15.9341 48.3325 15.9341H50.849C51.2591 15.9341 51.5945 16.2704 51.5888 16.6795V16.7412C51.6169 17.1456 51.2927 17.4866 50.8883 17.4866H45.3312C44.8474 17.4866 44.4205 17.8453 44.3915 18.3235C44.3691 18.8354 44.7726 19.2577 45.2799 19.2577H50.5482C50.9583 19.2577 51.2937 19.5939 51.2937 20.0031L51.2881 20.0545V20.0657C51.2937 20.4982 50.9406 20.8513 50.5081 20.8513H46.8557C46.3718 20.8513 45.9449 21.21 45.916 21.6938C45.8936 22.2001 46.2971 22.6279 46.8043 22.6279H50.6725C51.0994 22.6279 51.4179 22.9866 51.4123 23.4135C51.4123 23.4191 51.4123 23.4191 51.4123 23.4247C51.4123 23.4303 51.4123 23.4303 51.4123 23.4359C51.4179 23.8628 51.0994 24.2215 50.6725 24.2215H46.625C46.1467 24.2215 45.7198 24.5802 45.6909 25.0585C45.6684 25.5713 46.072 25.9926 46.5792 25.9926H47.6469C51.1806 25.2565 53.8419 22.1207 53.8419 18.3749Z" fill="white"/>
<path d="M50.2384 16.5579C49.904 16.3551 49.4304 16.41 49.1802 16.6812L47.4262 18.7192L44.9473 17.2073C44.6147 17.0044 44.1417 17.0584 43.8914 17.3281C43.8908 17.3291 43.8903 17.3295 43.8891 17.3305L41.7317 19.8425C41.4797 20.1113 41.5446 20.4952 41.8761 20.6995C42.003 20.7777 42.1574 20.8213 42.3164 20.8237V20.8379C42.5473 20.8327 42.7631 20.7416 42.9011 20.5914L44.655 18.5533L47.134 20.0653C47.4666 20.2682 47.9396 20.2141 48.1899 19.9444C48.1904 19.9435 48.191 19.943 48.1922 19.9421L50.3905 17.4158C50.6407 17.1447 50.5729 16.7608 50.2384 16.5579Z" fill="#D06400"/>
<path d="M35.1953 30.9004C35.1134 30.9004 35.0406 30.8481 35.0144 30.7705C34.648 29.6849 34.3737 29.4106 33.2881 29.0442C33.2105 29.018 33.1582 28.9452 33.1582 28.8633C33.1582 28.7813 33.2105 28.7085 33.2881 28.6823C34.3737 28.316 34.6479 28.0416 35.0144 26.956C35.0406 26.8784 35.1134 26.8262 35.1953 26.8262C35.2772 26.8262 35.35 26.8784 35.3762 26.956C35.7426 28.0416 36.0169 28.316 37.1025 28.6823C37.1801 28.7086 37.2324 28.7813 37.2324 28.8633C37.2324 28.9452 37.1802 29.018 37.1025 29.0442C36.0169 29.4106 35.7426 29.6849 35.3762 30.7705C35.3501 30.8481 35.2773 30.9004 35.1953 30.9004Z" fill="#FFD00D"/>
<path d="M37.5544 14.2279C37.4322 14.2279 37.3236 14.1499 37.2845 14.0342C36.7381 12.4153 36.3291 12.0064 34.7103 11.46C34.5946 11.4209 34.5166 11.3123 34.5166 11.1901C34.5166 11.068 34.5946 10.9594 34.7103 10.9203C36.3291 10.374 36.7381 9.96488 37.2845 8.346C37.3236 8.23031 37.4322 8.15234 37.5544 8.15234C37.6765 8.15234 37.7851 8.23031 37.8242 8.346C38.3706 9.96488 38.7796 10.3738 40.3985 10.9203C40.5142 10.9594 40.5921 11.068 40.5921 11.1901C40.5921 11.3123 40.5142 11.4209 40.3985 11.46C38.7796 12.0064 38.3706 12.4153 37.8242 14.0342C37.7851 14.1499 37.6765 14.2279 37.5544 14.2279Z" fill="white"/>
</g>
<path d="M55.3995 28.5256C55.2698 28.5256 55.1542 28.4428 55.1127 28.3199C54.5322 26.5997 54.0976 26.1652 52.3776 25.5848C52.2548 25.5431 52.1719 25.4278 52.1719 25.2979C52.1719 25.1682 52.2548 25.0528 52.3776 25.0112C54.0977 24.4308 54.5322 23.9961 55.1127 22.2761C55.1542 22.1531 55.2696 22.0703 55.3995 22.0703C55.5294 22.0703 55.6445 22.1531 55.6863 22.2761C56.2668 23.9961 56.7014 24.4307 58.4214 25.0112C58.5442 25.0528 58.6271 25.1682 58.6271 25.2979C58.6271 25.4278 58.5442 25.5431 58.4214 25.5848C56.7013 26.1653 56.2668 26.5997 55.6863 28.3199C55.6445 28.4428 55.5292 28.5256 55.3995 28.5256Z" fill="white"/>
</g>
<g clip-path="url(#clip2_1960_41131)">
<path d="M20.2559 19.375L10.4688 37.8144L19.3564 36.9933L23.658 44.8147L33.4451 26.3752L20.2559 19.375Z" fill="#E95454"/>
<path d="M21.3773 39.4463C21.652 38.8564 21.3647 38.1516 20.7902 37.8461L20.227 37.5463C19.6637 37.2254 19.4493 36.5122 19.7562 35.9349C20.0672 35.3478 20.7986 35.1237 21.3857 35.4347L22.9775 36.2796C23.4693 36.5402 24.0858 36.3511 24.3394 35.8565L24.3786 35.7808C24.6701 35.3142 24.4977 34.6977 24.0129 34.4413L19.2517 31.915C18.6717 31.6067 18.3872 30.9047 18.6576 30.3134C18.9561 29.6843 19.7099 29.4363 20.3166 29.7586L24.7331 32.1027C25.2249 32.3634 25.8415 32.1742 26.1021 31.6824L26.1273 31.6179L26.1343 31.6039C26.4159 31.0883 26.2184 30.4409 25.6985 30.1649L23.2213 28.8506C22.6412 28.5424 22.3567 27.8404 22.6314 27.2421C22.927 26.62 23.6837 26.3649 24.2904 26.6872L27.0268 28.1402C27.5383 28.4121 28.1492 28.1851 28.414 27.6694C28.4182 27.6624 28.4182 27.6624 28.421 27.6554C28.4252 27.6484 28.4252 27.6484 28.428 27.6414C28.7068 27.1328 28.5527 26.4995 28.0399 26.229L25.0876 24.6625C24.5145 24.3585 24.2301 23.6565 24.5005 23.0652C24.799 22.4361 25.5528 22.1881 26.1595 22.5103L33.4428 26.3762L23.6556 44.8156L20.9584 39.9129C21.1321 39.7952 21.2834 39.6494 21.3773 39.4463Z" fill="#ED6362"/>
<path d="M38.5652 19.375L48.3524 37.8144L39.4647 36.9933L35.1632 44.8146L25.376 26.3752L38.5652 19.375Z" fill="#ED6362"/>
<path d="M37.4399 39.4468C37.1653 38.8569 37.4525 38.1522 38.027 37.8467L38.5903 37.5468C39.1536 37.226 39.3679 36.5128 39.0611 35.9355C38.75 35.3484 38.0186 35.1242 37.4315 35.4353L35.8398 36.2802C35.348 36.5408 34.7315 36.3516 34.4778 35.857L34.4386 35.7814C34.1472 35.3148 34.3195 34.6983 34.8043 34.4418L39.5669 31.9141C40.147 31.6059 40.4314 30.9039 40.161 30.3126C39.8625 29.6835 39.1087 29.4355 38.502 29.7577L34.0855 32.1019C33.5937 32.3625 32.9772 32.1734 32.7166 31.6815L32.6914 31.6171L32.6843 31.6031C32.4027 31.0874 32.6003 30.4401 33.1201 30.1641L35.5974 28.8498C36.1775 28.5415 36.4619 27.8395 36.1873 27.2412C35.8916 26.6191 35.135 26.3641 34.5283 26.6864L31.789 28.1422C31.2776 28.414 30.6667 28.187 30.4018 27.6714C30.3976 27.6644 30.3976 27.6644 30.3948 27.6574C30.3906 27.6504 30.3906 27.6504 30.3878 27.6434C30.109 27.1347 30.2631 26.5014 30.776 26.231L33.7282 24.6645C34.3013 24.3604 34.5857 23.6584 34.3153 23.0671C34.0169 22.438 33.263 22.19 32.6563 22.5123L25.373 26.3781L35.1602 44.8175L37.8575 39.9148C37.6851 39.7957 37.5338 39.65 37.4399 39.4468Z" fill="#E95454"/>
<path d="M29.4107 32.7061C38.4422 32.7061 45.7637 25.3846 45.7637 16.3531C45.7637 7.32151 38.4422 0 29.4107 0C20.3791 0 13.0576 7.32151 13.0576 16.3531C13.0576 25.3846 20.3791 32.7061 29.4107 32.7061Z" fill="#FFCC5B"/>
<path d="M31.624 14.478H21.261C20.4553 14.478 19.794 13.8166 19.794 13.011L19.8052 12.9101V12.8877C19.794 12.0371 20.4875 11.3422 21.3395 11.3422H28.5219C29.4732 11.3422 30.3139 10.6374 30.37 9.68458C30.4148 8.68834 29.6204 7.84764 28.6227 7.84764H21.0144C20.1751 7.84764 19.5474 7.14286 19.5586 6.30215C19.5586 6.29094 19.5586 6.29094 19.5586 6.27973C19.5586 6.26852 19.5586 6.26853 19.5586 6.25732C19.5474 5.41801 20.1737 4.71182 21.0144 4.71182H28.9758C29.916 4.71182 30.7567 4.00704 30.8128 3.06545C30.8576 2.05801 30.0631 1.22852 29.0655 1.22852H23.2352C17.2901 3.67916 13.1006 9.52484 13.1006 16.3541C13.1006 23.1834 17.2901 29.0277 23.2366 31.4756H30.639C31.5792 31.4756 32.4199 30.7708 32.476 29.8292C32.5208 28.8218 31.7263 27.9937 30.7287 27.9937L22.3077 27.9923C21.3142 27.9923 20.5142 27.1614 20.5674 26.1553C20.6165 25.2137 21.4628 24.5062 22.4057 24.5062H25.6705C26.6093 24.4795 27.3673 23.7103 27.3673 22.7645C27.3673 21.8019 26.584 21.0172 25.62 21.0172H20.6711C19.8654 21.0172 19.2041 20.3573 19.2153 19.5502V19.4269C19.1592 18.6325 19.7982 17.9599 20.5926 17.9599H31.5232C32.4746 17.9599 33.3153 17.2551 33.3713 16.3135C33.4161 15.3075 32.6203 14.478 31.624 14.478Z" fill="#FDBC4B"/>
<path d="M29.4085 28.0246C22.9715 28.0246 17.7354 22.787 17.7354 16.3514C17.7354 9.91586 22.9715 4.67969 29.4085 4.67969C35.8455 4.67969 41.0817 9.91726 41.0817 16.3528C41.0817 22.7884 35.8455 28.0246 29.4085 28.0246Z" fill="#FFDB70"/>
<path opacity="0.2" d="M41.0793 16.3524C41.0793 10.1424 36.2004 5.06318 30.0759 4.71289H28.9886C28.2712 4.71289 27.6309 5.25094 27.5874 5.96834C27.5538 6.73618 28.1591 7.36951 28.92 7.36951L35.3429 7.37091C36.1009 7.37091 36.7105 8.00424 36.6698 8.77208C36.632 9.49088 35.9874 10.0303 35.2672 10.0303H32.7774C32.0614 10.0514 31.4827 10.637 31.4827 11.3586C31.4827 12.0929 32.081 12.6912 32.8152 12.6912H36.5899C37.2051 12.6912 37.7081 13.1956 37.6997 13.8093V13.9018C37.7417 14.5085 37.2555 15.0199 36.6488 15.0199H28.3133C27.5874 15.0199 26.9471 15.558 26.9037 16.2754C26.8701 17.0432 27.4754 17.6765 28.2362 17.6765H36.1388C36.7539 17.6765 37.2569 18.1809 37.2569 18.7947L37.2485 18.8717V18.8885C37.2569 19.5373 36.7273 20.0669 36.0785 20.0669H30.6C29.8742 20.0669 29.2338 20.605 29.1904 21.3308C29.1568 22.0902 29.7621 22.7319 30.5229 22.7319H36.3251C36.9655 22.7319 37.4433 23.27 37.4349 23.9103C37.4349 23.9187 37.4349 23.9187 37.4349 23.9271C37.4349 23.9356 37.4349 23.9356 37.4349 23.944C37.4433 24.5843 36.9655 25.1223 36.3251 25.1223H30.2539C29.5365 25.1223 28.8961 25.6604 28.8527 26.3778C28.8191 27.147 29.4244 27.779 30.1852 27.779H31.7867C37.0874 26.6748 41.0793 21.9711 41.0793 16.3524Z" fill="white"/>
<path d="M35.6741 13.6289C35.1724 13.3246 34.4621 13.407 34.0867 13.8137L31.4558 16.8708L27.7374 14.6029C27.2384 14.2986 26.5289 14.3796 26.1535 14.7842C26.1527 14.7856 26.1518 14.7863 26.15 14.7877L22.914 18.5558C22.536 18.9589 22.6334 19.5348 23.1306 19.8412C23.3209 19.9585 23.5524 20.0239 23.791 20.0275V20.0488C24.1374 20.041 24.461 19.9045 24.668 19.6791L27.299 16.622L31.0173 18.8899C31.5163 19.1942 32.2258 19.1132 32.6012 18.7086C32.602 18.7072 32.6029 18.7065 32.6047 18.7051L35.9022 14.9157C36.2774 14.509 36.1757 13.9332 35.6741 13.6289Z" fill="#D06400"/>
<path d="M13.1104 35.1406C12.9875 35.1406 12.8783 35.0622 12.839 34.9458C12.2894 33.3173 11.878 32.9059 10.2496 32.3564C10.1331 32.3171 10.0547 32.2078 10.0547 32.0849C10.0547 31.962 10.1331 31.8528 10.2495 31.8135C11.8779 31.264 12.2893 30.8525 12.8389 29.2241C12.8783 29.1077 12.9874 29.0293 13.1103 29.0293C13.2332 29.0293 13.3424 29.1077 13.3817 29.2241C13.9313 30.8525 14.3427 31.264 15.9711 31.8135C16.0875 31.8529 16.166 31.962 16.166 32.0849C16.166 32.2078 16.0876 32.3171 15.9711 32.3564C14.3427 32.9059 13.9313 33.3173 13.3817 34.9458C13.3425 35.0622 13.2333 35.1406 13.1104 35.1406Z" fill="#FFD00D"/>
<path d="M16.6484 10.1328C16.4652 10.1328 16.3023 10.0159 16.2437 9.84234C15.424 7.41403 14.8106 6.80059 12.3823 5.98096C12.2088 5.92229 12.0918 5.75939 12.0918 5.57618C12.0918 5.39296 12.2088 5.23006 12.3823 5.1714C14.8106 4.35196 15.424 3.73833 16.2437 1.31002C16.3023 1.13648 16.4652 1.01953 16.6484 1.01953C16.8317 1.01953 16.9946 1.13648 17.0532 1.31002C17.8729 3.73833 18.4863 4.35177 20.9146 5.1714C21.0881 5.23006 21.2051 5.39296 21.2051 5.57618C21.2051 5.75939 21.0881 5.92229 20.9146 5.98096C18.4863 6.80059 17.8729 7.41403 17.0532 9.84234C16.9946 10.0159 16.8317 10.1328 16.6484 10.1328Z" fill="white"/>
</g>
<path d="M15.2526 31.5891C15.058 31.5891 14.8846 31.465 14.8223 31.2806C13.9516 28.7004 13.2997 28.0486 10.7197 27.1779C10.5355 27.1154 10.4111 26.9425 10.4111 26.7477C10.4111 26.5531 10.5355 26.3799 10.7197 26.3176C13.2999 25.447 13.9516 24.795 14.8223 22.215C14.8846 22.0304 15.0578 21.9062 15.2526 21.9062C15.4474 21.9062 15.6201 22.0304 15.6828 22.215C16.5535 24.795 17.2055 25.4468 19.7855 26.3176C19.9696 26.3799 20.094 26.5531 20.094 26.7477C20.094 26.9425 19.9696 27.1154 19.7855 27.1779C17.2053 28.0488 16.5535 28.7004 15.6828 31.2806C15.6201 31.465 15.4472 31.5891 15.2526 31.5891Z" fill="white"/>
<defs>
<clipPath id="clip0_1960_41131">
<rect width="29.8776" height="31.4268" fill="white" transform="translate(0 8.48242)"/>
</clipPath>
<clipPath id="clip1_1960_41131">
<rect width="29.8776" height="29.8776" fill="white" transform="translate(31.1221 7.47266)"/>
</clipPath>
<clipPath id="clip2_1960_41131">
<rect width="44.8164" height="44.8164" fill="white" transform="translate(7)"/>
</clipPath>
</defs>
</svg>
